<svg xmlns="http://www.w3.org/2000/svg" version="1.1" xmlns:xlink="http://www.w3.org/1999/xlink" width="1000" height="1000"><style>
    #light-icon {
      display: inline;
    }
    #dark-icon {
      display: none;
    }

    @media (prefers-color-scheme: dark) {
      #light-icon {
        display: none;
      }
      #dark-icon {
        display: inline;
      }
    }
  </style><g id="light-icon"><svg xmlns="http://www.w3.org/2000/svg" version="1.1" xmlns:xlink="http://www.w3.org/1999/xlink" width="1000" height="1000"><g clip-path="url(#SvgjsClipPath1084)"><rect width="1000" height="1000" fill="#ffffff"></rect><g transform="matrix(1.6431924882629108,0,0,1.6431924882629108,150,150)"><svg xmlns="http://www.w3.org/2000/svg" width="426" height="426" fill="none"><path d="m135.588 232 186 176h-240l54-176Z" fill="url(#careerchief-favicon__a)"></path><path d="M62.588 408S-1.415 145.181.088 131c1.003-4.681 2-7 6-9.5s10.5-1.5 13.5 1c3.5 2 100.5 97 100.5 97L62.588 408Z" fill="url(#careerchief-favicon__b)"></path><path d="M213.088 18c5.5 0 9.5 3 12 7s118.5 383 118.5 383l-201.5-195s57-185 59-188.5 6.5-6.5 12-6.5Z" fill="url(#careerchief-favicon__c)"></path><path d="M420.088 121.5c6.5 3.5 5 13 5 13l-62.5 273.5-57.5-189 100.5-96s8-5 14.5-1.5Z" fill="url(#careerchief-favicon__d)"></path><defs><linearGradient id="careerchief-favicon__a" x1="200.233" y1="25" x2="228.833" y2="408.366" gradientUnits="userSpaceOnUse"><stop stop-color="#6AB0CC"></stop><stop offset="1" stop-color="#2A6C8E"></stop></linearGradient><linearGradient id="careerchief-favicon__b" x1="63.088" y1="20.5" x2="63.088" y2="411" gradientUnits="userSpaceOnUse"><stop stop-color="#0F1E30"></stop><stop offset="1" stop-color="#1A2F4A"></stop></linearGradient><linearGradient id="careerchief-favicon__c" x1="210.088" y1="18" x2="241.588" y2="403" gradientUnits="userSpaceOnUse"><stop stop-color="#1A2F4A"></stop><stop offset="1" stop-color="#0F1E30"></stop></linearGradient><linearGradient id="careerchief-favicon__d" x1="365.588" y1="20.5" x2="393.038" y2="388.452" gradientUnits="userSpaceOnUse"><stop stop-color="#6AB0CC"></stop><stop offset="1" stop-color="#2A6C8E"></stop></linearGradient><clipPath id="SvgjsClipPath1084"><rect width="1000" height="1000" x="0" y="0" rx="350" ry="350"></rect></clipPath></defs></svg></g></g></svg></g><g id="dark-icon"><svg xmlns="http://www.w3.org/2000/svg" version="1.1" xmlns:xlink="http://www.w3.org/1999/xlink" width="1000" height="1000"><g clip-path="url(#SvgjsClipPath1085)"><rect width="1000" height="1000" fill="#ffffff"></rect><g transform="matrix(1.6431924882629108,0,0,1.6431924882629108,150,150)"><svg xmlns="http://www.w3.org/2000/svg" width="426" height="426" fill="none"><path d="m135.588 232 186 176h-240l54-176Z" fill="url(#careerchief-favicon__a)"></path><path d="M62.588 408S-1.415 145.181.088 131c1.003-4.681 2-7 6-9.5s10.5-1.5 13.5 1c3.5 2 100.5 97 100.5 97L62.588 408Z" fill="url(#careerchief-favicon__b)"></path><path d="M213.088 18c5.5 0 9.5 3 12 7s118.5 383 118.5 383l-201.5-195s57-185 59-188.5 6.5-6.5 12-6.5Z" fill="url(#careerchief-favicon__c)"></path><path d="M420.088 121.5c6.5 3.5 5 13 5 13l-62.5 273.5-57.5-189 100.5-96s8-5 14.5-1.5Z" fill="url(#careerchief-favicon__d)"></path><defs><linearGradient id="careerchief-favicon__a" x1="200.233" y1="25" x2="228.833" y2="408.366" gradientUnits="userSpaceOnUse"><stop stop-color="#6AB0CC"></stop><stop offset="1" stop-color="#2A6C8E"></stop></linearGradient><linearGradient id="careerchief-favicon__b" x1="63.088" y1="20.5" x2="63.088" y2="411" gradientUnits="userSpaceOnUse"><stop stop-color="#0F1E30"></stop><stop offset="1" stop-color="#1A2F4A"></stop></linearGradient><linearGradient id="careerchief-favicon__c" x1="210.088" y1="18" x2="241.588" y2="403" gradientUnits="userSpaceOnUse"><stop stop-color="#1A2F4A"></stop><stop offset="1" stop-color="#0F1E30"></stop></linearGradient><linearGradient id="careerchief-favicon__d" x1="365.588" y1="20.5" x2="393.038" y2="388.452" gradientUnits="userSpaceOnUse"><stop stop-color="#6AB0CC"></stop><stop offset="1" stop-color="#2A6C8E"></stop></linearGradient><clipPath id="SvgjsClipPath1085"><rect width="1000" height="1000" x="0" y="0" rx="350" ry="350"></rect></clipPath></defs></svg></g></g></svg></g></svg>