<svg width="2281" height="390" fill="none" xmlns="http://www.w3.org/2000/svg"><path d="M2146.66 330v-3.3l4.29-.99c4.18-1.1 7.48-2.97 9.9-5.61 2.42-2.86 3.63-6.49 3.63-10.89v-24.09c.22-8.14.33-16.28.33-24.42v-82.83h-18.48v-3.63l7.26-1.32c4.4-.44 7.59-1.98 9.57-4.62 1.98-2.64 3.41-6.27 4.29-10.89 2.2-8.58 5.39-16.06 9.57-22.44 4.4-6.6 9.35-12.65 14.85-18.15 8.36-7.92 17.16-13.42 26.4-16.5 9.46-3.3 18.7-4.95 27.72-4.95 8.8 0 16.83 1.87 24.09 5.61 7.26 3.52 10.89 9.46 10.89 17.82 0 5.94-1.76 10.67-5.28 14.19-3.52 3.3-8.47 4.95-14.85 4.95-5.28 0-10.12-1.43-14.52-4.29-4.4-2.86-8.69-7.92-12.87-15.18l-4.62-5.61c-2.42-3.08-4.84-4.51-7.26-4.29-2.42 0-4.18 1.76-5.28 5.28-1.54 7.7-2.75 16.72-3.63 27.06-.66 10.34-.99 20.46-.99 30.36h36.96v6.6h-36.96v130.68c0 8.36 4.4 13.75 13.2 16.17l8.25 1.98v3.3h-86.46Zm-83.8-163.68c14.3 0 26.51 2.97 36.63 8.91 10.12 5.72 17.82 13.64 23.1 23.76 5.5 9.9 8.25 21.23 8.25 33.99 0 2.42-.11 4.95-.33 7.59-.22 2.42-.66 4.62-1.32 6.6h-98.34c.22 23.76 4.4 40.92 12.54 51.48 8.36 10.34 20.68 15.51 36.96 15.51 11 0 19.91-1.76 26.73-5.28 6.82-3.52 13.2-8.69 19.14-15.51l3.3 2.97c-6.82 12.1-15.95 21.56-27.39 28.38-11.22 6.82-24.75 10.23-40.59 10.23-15.62 0-29.48-3.3-41.58-9.9-12.1-6.82-21.56-16.5-28.38-29.04s-10.23-27.5-10.23-44.88c0-18.04 3.96-33.33 11.88-45.87 7.92-12.76 18.04-22.44 30.36-29.04 12.54-6.6 25.63-9.9 39.27-9.9Zm-.99 6.6c-6.38 0-11.88 1.98-16.5 5.94-4.4 3.74-7.92 10.56-10.56 20.46-2.42 9.68-3.74 23.43-3.96 41.25h56.43c2.2-23.98 1.32-41.25-2.64-51.81-3.96-10.56-11.55-15.84-22.77-15.84Zm-134.73-23.76c-7.48 0-13.86-2.31-19.14-6.93-5.06-4.84-7.59-10.89-7.59-18.15 0-7.48 2.53-13.53 7.59-18.15 5.28-4.62 11.66-6.93 19.14-6.93s13.75 2.31 18.81 6.93c5.06 4.62 7.59 10.67 7.59 18.15 0 7.26-2.53 13.31-7.59 18.15-5.06 4.62-11.33 6.93-18.81 6.93ZM1888.2 330v-3.3l4.62-1.32c4.4-1.32 7.37-3.3 8.91-5.94 1.76-2.64 2.64-6.16 2.64-10.56V205.59c0-4.62-.88-8.03-2.64-10.23-1.54-2.42-4.51-4.07-8.91-4.95l-4.62-.99v-3.3l60.39-19.47 3.3 3.3-.99 46.86v92.4c0 4.4.77 7.92 2.31 10.56 1.76 2.64 4.73 4.62 8.91 5.94l3.3.99v3.3h-77.22Zm-191.09 0v-3.3l3.96-1.32c7.92-2.64 11.88-8.14 11.88-16.5V132.66c0-4.62-.77-8.03-2.31-10.23-1.54-2.2-4.51-3.85-8.91-4.95l-4.95-1.32v-3.3l58.08-14.19 5.28 2.97-1.32 46.53v41.25c7.7-6.38 15.95-11.77 24.75-16.17 9.02-4.62 18.92-6.93 29.7-6.93 14.3 0 25.63 4.07 33.99 12.21 8.58 8.14 12.87 20.68 12.87 37.62v93.06c0 4.4.88 7.92 2.64 10.56 1.76 2.64 4.84 4.62 9.24 5.94l2.64.99v3.3h-77.22v-3.3l3.96-.99c7.92-2.64 11.88-8.25 11.88-16.83V205.26c0-8.8-1.54-14.85-4.62-18.15-2.86-3.3-8.03-4.95-15.51-4.95-4.84 0-10.12.99-15.84 2.97-5.72 1.76-11.55 4.95-17.49 9.57v114.84c0 8.58 3.96 14.08 11.88 16.5l2.64.66v3.3h-77.22Zm-85.65 5.94c-21.34 0-40.7-4.29-58.08-12.87-17.16-8.8-30.8-21.78-40.92-38.94-10.12-17.16-15.18-38.17-15.18-63.03 0-18.92 3.08-35.53 9.24-49.83 6.16-14.3 14.52-26.29 25.08-35.97 10.78-9.68 23.1-16.94 36.96-21.78 14.08-4.84 28.93-7.26 44.55-7.26 12.54 0 24.09 1.43 34.65 4.29 10.56 2.86 20.46 6.82 29.7 11.88l1.32 40.59h-3.3l-16.5-26.4c-2.2-4.18-4.62-7.92-7.26-11.22-2.64-3.52-5.94-6.16-9.9-7.92-3.3-1.54-6.6-2.64-9.9-3.3-3.08-.88-7.04-1.32-11.88-1.32-12.76 0-24.42 3.41-34.98 10.23-10.34 6.82-18.7 18.15-25.08 33.99-6.16 15.62-9.24 37.07-9.24 64.35 0 27.06 2.97 48.51 8.91 64.35 5.94 15.62 13.97 26.84 24.09 33.66 10.34 6.6 21.89 9.9 34.65 9.9 7.04 0 12.65-.44 16.83-1.32 4.18-1.1 8.36-2.64 12.54-4.62 4.18-1.76 7.37-4.29 9.57-7.59 2.2-3.52 4.18-7.26 5.94-11.22l14.52-32.34h3.3l-.99 47.19c-9.24 4.84-19.58 8.8-31.02 11.88-11.44 3.08-23.98 4.62-37.62 4.62Z" fill="#FFFFFF"></path><path d="M1351.61 330v-3.3l4.95-1.32c4.4-1.32 7.37-3.3 8.91-5.94 1.76-2.64 2.64-6.05 2.64-10.23V205.92c0-4.84-.88-8.36-2.64-10.56-1.54-2.42-4.51-4.07-8.91-4.95l-4.95-1.32v-3.3l56.76-19.14 3.3 3.3 2.97 28.38v2.64c3.08-6.16 7.04-11.77 11.88-16.83 5.06-5.28 10.56-9.57 16.5-12.87 6.16-3.3 12.21-4.95 18.15-4.95 8.36 0 14.74 2.31 19.14 6.93 4.4 4.62 6.6 10.45 6.6 17.49 0 7.48-2.2 13.31-6.6 17.49-4.18 3.96-9.24 5.94-15.18 5.94-9.24 0-17.38-4.62-24.42-13.86l-.66-.66c-2.2-3.08-4.73-4.73-7.59-4.95-2.86-.44-5.5.88-7.92 3.96-2.2 1.98-4.07 4.4-5.61 7.26-1.32 2.64-2.64 5.72-3.96 9.24v92.07c0 8.8 3.85 14.3 11.55 16.5l10.56 2.97v3.3h-85.47Zm-84.42-163.68c14.3 0 26.51 2.97 36.63 8.91 10.12 5.72 17.82 13.64 23.1 23.76 5.5 9.9 8.25 21.23 8.25 33.99 0 2.42-.11 4.95-.33 7.59-.22 2.42-.66 4.62-1.32 6.6h-98.34c.22 23.76 4.4 40.92 12.54 51.48 8.36 10.34 20.68 15.51 36.96 15.51 11 0 19.91-1.76 26.73-5.28 6.82-3.52 13.2-8.69 19.14-15.51l3.3 2.97c-6.82 12.1-15.95 21.56-27.39 28.38-11.22 6.82-24.75 10.23-40.59 10.23-15.62 0-29.48-3.3-41.58-9.9-12.1-6.82-21.56-16.5-28.38-29.04s-10.23-27.5-10.23-44.88c0-18.04 3.96-33.33 11.88-45.87 7.92-12.76 18.04-22.44 30.36-29.04 12.54-6.6 25.63-9.9 39.27-9.9Zm-.99 6.6c-6.38 0-11.88 1.98-16.5 5.94-4.4 3.74-7.92 10.56-10.56 20.46-2.42 9.68-3.74 23.43-3.96 41.25h56.43c2.2-23.98 1.32-41.25-2.64-51.81-3.96-10.56-11.55-15.84-22.77-15.84Zm-166.27-6.6c14.3 0 26.51 2.97 36.63 8.91 10.12 5.72 17.82 13.64 23.1 23.76 5.5 9.9 8.25 21.23 8.25 33.99 0 2.42-.11 4.95-.33 7.59-.22 2.42-.66 4.62-1.32 6.6h-98.34c.22 23.76 4.4 40.92 12.54 51.48 8.36 10.34 20.68 15.51 36.96 15.51 11 0 19.91-1.76 26.73-5.28 6.82-3.52 13.2-8.69 19.14-15.51l3.3 2.97c-6.82 12.1-15.95 21.56-27.39 28.38-11.22 6.82-24.75 10.23-40.59 10.23-15.62 0-29.48-3.3-41.58-9.9-12.1-6.82-21.56-16.5-28.38-29.04s-10.23-27.5-10.23-44.88c0-18.04 3.96-33.33 11.88-45.87 7.92-12.76 18.04-22.44 30.36-29.04 12.54-6.6 25.63-9.9 39.27-9.9Zm-.99 6.6c-6.38 0-11.88 1.98-16.5 5.94-4.4 3.74-7.92 10.56-10.56 20.46-2.42 9.68-3.74 23.43-3.96 41.25h56.43c2.2-23.98 1.32-41.25-2.64-51.81-3.96-10.56-11.55-15.84-22.77-15.84ZM876.594 330v-3.3l4.95-1.32c4.4-1.32 7.37-3.3 8.91-5.94 1.76-2.64 2.64-6.05 2.64-10.23V205.92c0-4.84-.88-8.36-2.64-10.56-1.54-2.42-4.51-4.07-8.91-4.95l-4.95-1.32v-3.3l56.76-19.14 3.3 3.3 2.97 28.38v2.64c3.08-6.16 7.04-11.77 11.88-16.83 5.06-5.28 10.56-9.57 16.5-12.87 6.16-3.3 12.21-4.95 18.15-4.95 8.36 0 14.736 2.31 19.136 6.93 4.4 4.62 6.6 10.45 6.6 17.49 0 7.48-2.2 13.31-6.6 17.49-4.18 3.96-9.236 5.94-15.176 5.94-9.24 0-17.38-4.62-24.42-13.86l-.66-.66c-2.2-3.08-4.73-4.73-7.59-4.95-2.86-.44-5.5.88-7.92 3.96-2.2 1.98-4.07 4.4-5.61 7.26-1.32 2.64-2.64 5.72-3.96 9.24v92.07c0 8.8 3.85 14.3 11.55 16.5l10.56 2.97v3.3h-85.47Zm-121.976 4.95c-12.76 0-23.54-3.63-32.34-10.89-8.58-7.26-12.87-17.71-12.87-31.35 0-10.34 5.28-19.8 15.84-28.38 10.56-8.8 27.17-15.4 49.83-19.8 3.52-.66 7.48-1.32 11.88-1.98 4.4-.88 9.02-1.76 13.86-2.64v-26.07c0-14.96-1.87-25.41-5.61-31.35-3.52-6.16-9.13-9.24-16.83-9.24-5.28 0-9.46 1.76-12.54 5.28-3.08 3.3-5.06 9.13-5.94 17.49l-.66 3.63c-.44 9.46-2.75 16.39-6.93 20.79-4.18 4.4-9.35 6.6-15.51 6.6-5.72 0-10.45-1.76-14.19-5.28-3.74-3.52-5.61-8.25-5.61-14.19 0-9.02 3.08-16.61 9.24-22.77 6.38-6.16 14.74-10.78 25.08-13.86 10.34-3.08 21.56-4.62 33.66-4.62 19.58 0 34.65 4.84 45.21 14.52 10.78 9.46 16.17 24.97 16.17 46.53v72.93c0 9.9 4.62 14.85 13.86 14.85h7.26l2.97 2.64c-4.18 5.28-8.8 9.35-13.86 12.21-4.84 2.86-11.77 4.29-20.79 4.29-9.68 0-17.38-2.2-23.1-6.6-5.5-4.62-9.13-10.67-10.89-18.15-6.6 7.04-13.42 13.09-20.46 18.15-6.82 4.84-15.73 7.26-26.73 7.26Zm20.13-20.13c4.4 0 8.47-.99 12.21-2.97 3.96-2.2 8.58-5.5 13.86-9.9v-55.44l-6.6 1.32c-2.2.44-4.73.88-7.59 1.32-10.12 2.64-18.26 7.15-24.42 13.53-5.94 6.16-8.91 14.52-8.91 25.08 0 9.02 2.09 15.84 6.27 20.46 4.18 4.4 9.24 6.6 15.18 6.6ZM621.78 335.94c-21.34 0-40.7-4.29-58.08-12.87-17.16-8.8-30.8-21.78-40.92-38.94-10.12-17.16-15.18-38.17-15.18-63.03 0-18.92 3.08-35.53 9.24-49.83 6.16-14.3 14.52-26.29 25.08-35.97 10.78-9.68 23.1-16.94 36.96-21.78 14.08-4.84 28.93-7.26 44.55-7.26 12.54 0 24.09 1.43 34.65 4.29 10.56 2.86 20.46 6.82 29.7 11.88l1.32 40.59h-3.3l-16.5-26.4c-2.2-4.18-4.62-7.92-7.26-11.22-2.64-3.52-5.94-6.16-9.9-7.92-3.3-1.54-6.6-2.64-9.9-3.3-3.08-.88-7.04-1.32-11.88-1.32-12.76 0-24.42 3.41-34.98 10.23-10.34 6.82-18.7 18.15-25.08 33.99-6.16 15.62-9.24 37.07-9.24 64.35 0 27.06 2.97 48.51 8.91 64.35 5.94 15.62 13.97 26.84 24.09 33.66 10.34 6.6 21.89 9.9 34.65 9.9 7.04 0 12.65-.44 16.83-1.32 4.18-1.1 8.36-2.64 12.54-4.62 4.18-1.76 7.37-4.29 9.57-7.59 2.2-3.52 4.18-7.26 5.94-11.22l14.52-32.34h3.3l-.99 47.19c-9.24 4.84-19.58 8.8-31.02 11.88-11.44 3.08-23.98 4.62-37.62 4.62Z" fill="#FFFFFF"></path><path d="m135.526 214 186 176h-240l54-176Z" fill="#FFFFFF"></path><path d="M62.526 390S-1.477 127.181.026 113c1.003-4.681 2-7 6-9.5s10.5-1.5 13.5 1c3.5 2 100.5 97 100.5 97L62.526 390Z" fill="#FFFFFF"></path><path d="M213.026 0c5.5 0 9.5 3 12 7s118.5 383 118.5 383l-201.5-195s57-185 59-188.5 6.5-6.5 12-6.5Z" fill="#FFFFFF"></path><path d="M420.026 103.5c6.5 3.5 5 13 5 13l-62.5 273.5-57.5-189 100.5-96s8-5 14.5-1.5Z" fill="#FFFFFF"></path></svg>