<svg width="426" height="390" fill="none" xmlns="http://www.w3.org/2000/svg"><path d="m135.526 214 186 176h-240l54-176Z" fill="url(#careerchief-logomark__a)"></path><path d="M62.526 390S-1.477 127.181.026 113c1.003-4.681 2-7 6-9.5s10.5-1.5 13.5 1c3.5 2 100.5 97 100.5 97L62.526 390Z" fill="url(#careerchief-logomark__b)"></path><path d="M213.026 0c5.5 0 9.5 3 12 7s118.5 383 118.5 383l-201.5-195s57-185 59-188.5 6.5-6.5 12-6.5Z" fill="url(#careerchief-logomark__c)"></path><path d="M420.026 103.5c6.5 3.5 5 13 5 13l-62.5 273.5-57.5-189 100.5-96s8-5 14.5-1.5Z" fill="url(#careerchief-logomark__d)"></path><defs><linearGradient id="careerchief-logomark__a" x1="200.172" y1="7" x2="228.772" y2="390.366" gradientUnits="userSpaceOnUse"><stop stop-color="#6AB0CC"></stop><stop offset="1" stop-color="#2A6C8E"></stop></linearGradient><linearGradient id="careerchief-logomark__b" x1="63.026" y1="2.5" x2="63.026" y2="393" gradientUnits="userSpaceOnUse"><stop stop-color="#0F1E30"></stop><stop offset="1" stop-color="#1A2F4A"></stop></linearGradient><linearGradient id="careerchief-logomark__c" x1="210.026" y1="0" x2="241.526" y2="385" gradientUnits="userSpaceOnUse"><stop stop-color="#1A2F4A"></stop><stop offset="1" stop-color="#0F1E30"></stop></linearGradient><linearGradient id="careerchief-logomark__d" x1="365.526" y1="2.5" x2="392.976" y2="370.452" gradientUnits="userSpaceOnUse"><stop stop-color="#6AB0CC"></stop><stop offset="1" stop-color="#2A6C8E"></stop></linearGradient></defs></svg>