<svg width="228" height="39" fill="none" xmlns="http://www.w3.org/2000/svg"><path d="m13.553 21.4 18.6 17.6h-24l5.4-17.6Z" fill="url(#careerchief-lockup-sm__a)"/><path d="M6.253 39s-6.4-26.282-6.25-27.7c.1-.468.2-.7.6-.95.4-.25 1.05-.15 1.35.1.35.2 10.05 9.7 10.05 9.7L6.253 39Z" fill="url(#careerchief-lockup-sm__b)"/><path d="M21.303 0c.55 0 .95.3 1.2.7.25.4 11.85 38.3 11.85 38.3l-20.15-19.5s5.7-18.5 5.9-18.85c.2-.35.65-.65 1.2-.65Z" fill="url(#careerchief-lockup-sm__c)"/><path d="M42.003 10.35c.65.35.5 1.3.5 1.3L36.253 39l-5.75-18.9 10.05-9.6s.8-.5 1.45-.15Z" fill="url(#careerchief-lockup-sm__d)"/><path d="M214.518 33.407v-.329l.428-.099c.417-.11.746-.296.987-.56.242-.285.362-.647.362-1.086V28.93a89.94 89.94 0 0 0 .033-2.436V18.23h-1.843v-.362l.724-.131c.439-.044.757-.198.955-.461.197-.264.34-.626.428-1.087.219-.856.537-1.602.954-2.238a11.82 11.82 0 0 1 1.482-1.811c.834-.79 1.712-1.339 2.634-1.646a8.342 8.342 0 0 1 2.765-.494c.878 0 1.679.187 2.403.56.725.35 1.087.943 1.087 1.777 0 .593-.176 1.065-.527 1.416-.351.33-.845.494-1.481.494-.527 0-1.01-.143-1.449-.428-.439-.285-.867-.79-1.284-1.514l-.461-.56c-.241-.307-.483-.45-.724-.428-.242 0-.417.175-.527.527a24.53 24.53 0 0 0-.362 2.7 47.445 47.445 0 0 0-.099 3.028h3.687v.659h-3.687v13.036c0 .835.439 1.372 1.317 1.614l.823.197v.33h-8.625Zm-8.36-16.329c1.426 0 2.644.297 3.654.89a5.708 5.708 0 0 1 2.305 2.37c.548.987.823 2.117.823 3.39 0 .242-.011.494-.033.758-.022.241-.066.46-.132.658h-9.811c.022 2.37.439 4.082 1.251 5.136.834 1.031 2.063 1.547 3.688 1.547 1.097 0 1.986-.175 2.666-.527.681-.35 1.317-.867 1.91-1.547l.329.296c-.68 1.207-1.591 2.151-2.733 2.832-1.119.68-2.469 1.02-4.049 1.02-1.558 0-2.941-.329-4.148-.987-1.207-.68-2.151-1.647-2.831-2.898-.681-1.25-1.021-2.743-1.021-4.477 0-1.8.395-3.325 1.185-4.576.79-1.273 1.8-2.239 3.029-2.897 1.251-.659 2.557-.988 3.918-.988Zm-.099.659c-.637 0-1.185.197-1.646.592-.439.373-.79 1.054-1.054 2.041-.241.966-.373 2.338-.395 4.116h5.63c.219-2.393.132-4.116-.263-5.17-.395-1.053-1.153-1.58-2.272-1.58Zm-13.441-2.371c-.746 0-1.383-.23-1.91-.691-.504-.483-.757-1.087-.757-1.81 0-.747.253-1.35.757-1.812.527-.46 1.164-.69 1.91-.69s1.372.23 1.876.69c.505.461.758 1.065.758 1.811 0 .724-.253 1.328-.758 1.81-.504.462-1.13.692-1.876.692Zm-3.885 18.041v-.329l.461-.132c.439-.131.735-.329.889-.592.175-.264.263-.615.263-1.054V20.996c0-.461-.088-.801-.263-1.02-.154-.242-.45-.407-.889-.494l-.461-.1v-.329l6.025-1.942.329.33-.099 4.674v9.218c0 .44.077.79.231 1.054.175.263.472.46.889.592l.329.1v.328h-7.704Zm-19.064 0v-.329l.395-.132c.79-.263 1.185-.812 1.185-1.646V13.72c0-.46-.077-.8-.23-1.02-.154-.22-.45-.384-.889-.494l-.494-.132v-.33l5.794-1.415.527.296-.132 4.643v4.115a12.894 12.894 0 0 1 2.469-1.613c.9-.461 1.888-.692 2.963-.692 1.427 0 2.557.406 3.391 1.218.856.812 1.284 2.063 1.284 3.753v9.284c0 .44.088.79.264 1.054.175.263.482.46.921.592l.264.1v.328h-7.704v-.329l.395-.099c.79-.263 1.185-.823 1.185-1.679V20.963c0-.878-.153-1.482-.461-1.81-.285-.33-.801-.495-1.547-.495-.483 0-1.01.1-1.58.297-.571.175-1.152.494-1.745.955v11.456c0 .856.395 1.405 1.185 1.646l.263.066v.33h-7.703Zm-8.545.593c-2.129 0-4.06-.428-5.794-1.284-1.712-.878-3.073-2.173-4.082-3.885-1.01-1.712-1.515-3.808-1.515-6.288 0-1.887.308-3.544.922-4.971.615-1.427 1.449-2.623 2.502-3.588a10.793 10.793 0 0 1 3.687-2.173 13.583 13.583 0 0 1 4.445-.725c1.251 0 2.403.143 3.457.428a13.47 13.47 0 0 1 2.963 1.186l.131 4.049h-.329l-1.646-2.634a7.01 7.01 0 0 0-.724-1.12 2.477 2.477 0 0 0-.988-.79 4.338 4.338 0 0 0-.988-.329c-.307-.087-.702-.131-1.185-.131a6.3 6.3 0 0 0-3.489 1.02c-1.032.68-1.866 1.811-2.503 3.391-.614 1.559-.921 3.699-.921 6.42 0 2.7.296 4.84.889 6.42.592 1.558 1.393 2.678 2.403 3.358 1.031.658 2.184.988 3.457.988.702 0 1.262-.044 1.679-.132.417-.11.834-.264 1.251-.461.417-.176.735-.428.954-.757a9.01 9.01 0 0 0 .593-1.12l1.449-3.226h.329l-.099 4.708c-.922.483-1.953.878-3.095 1.185-1.141.307-2.392.461-3.753.461Z" fill="#2A6C8E"/><path d="M135.201 33.407v-.329l.494-.132c.439-.131.736-.329.889-.592.176-.264.264-.604.264-1.02V21.028c0-.483-.088-.834-.264-1.054-.153-.241-.45-.406-.889-.494l-.494-.131v-.33l5.663-1.909.329.33.297 2.83v.264a6.836 6.836 0 0 1 1.185-1.679 6.957 6.957 0 0 1 1.646-1.284c.614-.33 1.218-.494 1.811-.494.834 0 1.47.23 1.909.692.439.46.658 1.042.658 1.744 0 .747-.219 1.328-.658 1.745a2.122 2.122 0 0 1-1.514.593c-.922 0-1.734-.461-2.437-1.383l-.065-.066c-.22-.307-.472-.472-.758-.493-.285-.044-.548.087-.79.395a2.655 2.655 0 0 0-.559.724c-.132.263-.264.57-.396.922v9.185c0 .878.385 1.426 1.153 1.646l1.053.296v.33h-8.527Zm-8.422-16.329c1.426 0 2.645.297 3.654.89a5.708 5.708 0 0 1 2.305 2.37c.548.987.823 2.117.823 3.39 0 .242-.011.494-.033.758-.022.241-.066.46-.132.658h-9.811c.022 2.37.439 4.082 1.251 5.136.834 1.031 2.064 1.547 3.688 1.547 1.097 0 1.986-.175 2.666-.527.681-.35 1.317-.867 1.91-1.547l.329.296c-.68 1.207-1.591 2.151-2.732 2.832-1.12.68-2.47 1.02-4.05 1.02-1.558 0-2.941-.329-4.148-.987-1.207-.68-2.151-1.647-2.831-2.898-.681-1.25-1.021-2.743-1.021-4.477 0-1.8.395-3.325 1.185-4.576.79-1.273 1.8-2.239 3.029-2.897 1.251-.659 2.557-.988 3.918-.988Zm-.099.659c-.636 0-1.185.197-1.646.592-.439.373-.79 1.054-1.054 2.041-.241.966-.373 2.338-.395 4.116h5.63c.22-2.393.132-4.116-.263-5.17-.395-1.053-1.153-1.58-2.272-1.58Zm-16.587-.659c1.427 0 2.645.297 3.654.89a5.708 5.708 0 0 1 2.305 2.37c.548.987.823 2.117.823 3.39 0 .242-.011.494-.033.758-.022.241-.066.46-.132.658h-9.81c.021 2.37.438 4.082 1.251 5.136.834 1.031 2.063 1.547 3.687 1.547 1.097 0 1.986-.175 2.666-.527.681-.35 1.317-.867 1.91-1.547l.329.296c-.68 1.207-1.591 2.151-2.732 2.832-1.12.68-2.47 1.02-4.05 1.02-1.558 0-2.941-.329-4.148-.987-1.207-.68-2.151-1.647-2.831-2.898-.681-1.25-1.021-2.743-1.021-4.477 0-1.8.395-3.325 1.185-4.576.791-1.273 1.8-2.239 3.029-2.897 1.251-.659 2.557-.988 3.918-.988Zm-.099.659c-.636 0-1.185.197-1.646.592-.439.373-.79 1.054-1.053 2.041-.242.966-.374 2.338-.395 4.116h5.629c.22-2.393.132-4.116-.263-5.17-.395-1.053-1.152-1.58-2.272-1.58Zm-22.182 15.67v-.329l.494-.132c.439-.131.735-.329.889-.592.175-.264.263-.604.263-1.02V21.028c0-.483-.088-.834-.263-1.054-.154-.241-.45-.406-.89-.494l-.493-.131v-.33l5.663-1.909.329.33.296 2.83v.264a6.85 6.85 0 0 1 1.185-1.679 6.961 6.961 0 0 1 1.646-1.284c.615-.33 1.219-.494 1.811-.494.834 0 1.471.23 1.91.692.439.46.658 1.042.658 1.744 0 .747-.219 1.328-.658 1.745a2.123 2.123 0 0 1-1.515.593c-.922 0-1.734-.461-2.436-1.383l-.066-.066c-.22-.307-.472-.472-.757-.493-.285-.044-.549.087-.79.395a2.66 2.66 0 0 0-.56.724 9.64 9.64 0 0 0-.395.922v9.185c0 .878.384 1.426 1.152 1.646l1.054.296v.33h-8.527Zm-12.169.494c-1.273 0-2.348-.362-3.226-1.086-.856-.724-1.284-1.767-1.284-3.128 0-1.031.527-1.975 1.58-2.831 1.054-.878 2.71-1.536 4.972-1.975.35-.066.746-.132 1.185-.198.439-.088.9-.175 1.382-.263v-2.601c0-1.492-.186-2.535-.56-3.128-.35-.614-.91-.921-1.678-.921-.527 0-.944.175-1.251.526-.308.33-.505.911-.593 1.745l-.066.362c-.044.944-.274 1.635-.691 2.074a2.049 2.049 0 0 1-1.547.659c-.571 0-1.043-.176-1.416-.527-.373-.351-.56-.823-.56-1.416 0-.9.308-1.657.922-2.271.637-.615 1.47-1.076 2.502-1.383 1.032-.307 2.151-.46 3.358-.46 1.954 0 3.457.482 4.51 1.448 1.076.944 1.614 2.49 1.614 4.642v7.275c0 .988.46 1.482 1.382 1.482h.725l.296.263c-.417.527-.878.933-1.383 1.218-.483.286-1.174.428-2.074.428-.966 0-1.734-.22-2.304-.658-.55-.461-.911-1.065-1.087-1.81a14.059 14.059 0 0 1-2.041 1.81c-.68.483-1.57.724-2.667.724Zm2.009-2.008c.439 0 .845-.099 1.218-.296.395-.22.856-.549 1.382-.988v-5.53l-.658.13c-.22.045-.472.089-.757.133-1.01.263-1.822.713-2.437 1.35-.592.614-.888 1.448-.888 2.501 0 .9.208 1.58.625 2.042.417.439.922.658 1.515.658ZM62.391 34c-2.129 0-4.06-.428-5.794-1.284-1.712-.878-3.073-2.173-4.083-3.885C51.505 27.12 51 25.023 51 22.543c0-1.887.307-3.544.922-4.971.614-1.427 1.448-2.623 2.502-3.588a10.783 10.783 0 0 1 3.687-2.173 13.577 13.577 0 0 1 4.445-.725c1.25 0 2.403.143 3.456.428a13.48 13.48 0 0 1 2.963 1.186l.132 4.049h-.33l-1.645-2.634a7.056 7.056 0 0 0-.725-1.12 2.47 2.47 0 0 0-.987-.79 4.351 4.351 0 0 0-.988-.329c-.307-.087-.702-.131-1.185-.131a6.3 6.3 0 0 0-3.49 1.02c-1.031.68-1.865 1.811-2.502 3.391-.614 1.559-.922 3.699-.922 6.42 0 2.7.297 4.84.89 6.42.592 1.558 1.393 2.678 2.403 3.358 1.031.658 2.183.988 3.456.988.703 0 1.262-.044 1.68-.132.416-.11.833-.264 1.25-.461.417-.176.736-.428.955-.757.22-.351.417-.725.593-1.12l1.448-3.226h.33l-.1 4.708c-.921.483-1.953.878-3.094 1.185-1.141.307-2.392.461-3.753.461Z" fill="#1A2F4A"/><defs><linearGradient id="careerchief-lockup-sm__a" x1="20.017" y1=".7" x2="22.877" y2="39.037" gradientUnits="userSpaceOnUse"><stop stop-color="#6AB0CC"/><stop offset="1" stop-color="#2A6C8E"/></linearGradient><linearGradient id="careerchief-lockup-sm__b" x1="6.303" y1=".25" x2="6.303" y2="39.3" gradientUnits="userSpaceOnUse"><stop stop-color="#0F1E30"/><stop offset="1" stop-color="#1A2F4A"/></linearGradient><linearGradient id="careerchief-lockup-sm__c" x1="21.003" y1="0" x2="24.153" y2="38.5" gradientUnits="userSpaceOnUse"><stop stop-color="#1A2F4A"/><stop offset="1" stop-color="#0F1E30"/></linearGradient><linearGradient id="careerchief-lockup-sm__d" x1="36.553" y1=".25" x2="39.298" y2="37.045" gradientUnits="userSpaceOnUse"><stop stop-color="#6AB0CC"/><stop offset="1" stop-color="#2A6C8E"/></linearGradient></defs></svg>