<svg width="426" height="426" fill="none" xmlns="http://www.w3.org/2000/svg"><path d="m135.588 232 186 176h-240l54-176Z" fill="url(#careerchief-favicon__a)"></path><path d="M62.588 408S-1.415 145.181.088 131c1.003-4.681 2-7 6-9.5s10.5-1.5 13.5 1c3.5 2 100.5 97 100.5 97L62.588 408Z" fill="url(#careerchief-favicon__b)"></path><path d="M213.088 18c5.5 0 9.5 3 12 7s118.5 383 118.5 383l-201.5-195s57-185 59-188.5 6.5-6.5 12-6.5Z" fill="url(#careerchief-favicon__c)"></path><path d="M420.088 121.5c6.5 3.5 5 13 5 13l-62.5 273.5-57.5-189 100.5-96s8-5 14.5-1.5Z" fill="url(#careerchief-favicon__d)"></path><defs><linearGradient id="careerchief-favicon__a" x1="200.233" y1="25" x2="228.833" y2="408.366" gradientUnits="userSpaceOnUse"><stop stop-color="#6AB0CC"></stop><stop offset="1" stop-color="#2A6C8E"></stop></linearGradient><linearGradient id="careerchief-favicon__b" x1="63.088" y1="20.5" x2="63.088" y2="411" gradientUnits="userSpaceOnUse"><stop stop-color="#0F1E30"></stop><stop offset="1" stop-color="#1A2F4A"></stop></linearGradient><linearGradient id="careerchief-favicon__c" x1="210.088" y1="18" x2="241.588" y2="403" gradientUnits="userSpaceOnUse"><stop stop-color="#1A2F4A"></stop><stop offset="1" stop-color="#0F1E30"></stop></linearGradient><linearGradient id="careerchief-favicon__d" x1="365.588" y1="20.5" x2="393.038" y2="388.452" gradientUnits="userSpaceOnUse"><stop stop-color="#6AB0CC"></stop><stop offset="1" stop-color="#2A6C8E"></stop></linearGradient></defs></svg>