<?xml version="1.0" standalone="no"?>
<!DOCTYPE svg PUBLIC "-//W3C//DTD SVG 20010904//EN"
 "http://www.w3.org/TR/2001/REC-SVG-20010904/DTD/svg10.dtd">
<svg version="1.0" xmlns="http://www.w3.org/2000/svg"
 width="1800.000000pt" height="378.000000pt" viewBox="0 0 1800.000000 378.000000"
 preserveAspectRatio="xMidYMid meet">
<g transform="translate(0.000000,378.000000) scale(0.100000,-0.100000)"
fill="#000000" stroke="none">
<path d="M9910 3653 c-36 -13 -78 -28 -95 -33 -32 -9 -108 -35 -140 -49 -36
-15 -89 -33 -120 -40 -16 -4 -45 -16 -63 -25 l-33 -17 4 -1077 c3 -798 7
-1087 16 -1117 6 -22 16 -60 21 -85 21 -106 90 -296 131 -360 5 -8 12 -22 16
-30 32 -73 183 -274 257 -343 98 -91 261 -217 281 -217 2 0 26 -13 52 -28 80
-47 240 -109 313 -122 25 -5 57 -13 71 -18 22 -9 110 -16 157 -13 10 1 12 61
10 283 l-3 283 -40 6 c-83 13 -192 50 -265 89 -25 14 -52 28 -60 31 -8 4 -50
37 -93 74 -72 62 -197 212 -197 238 0 6 -6 18 -13 26 -17 20 -70 151 -86 211
-21 76 -30 251 -30 601 -1 270 2 339 12 348 10 7 133 12 393 13 l379 3 3 235
c1 129 0 245 -3 258 l-5 22 -384 0 c-346 0 -384 2 -390 16 -4 9 -6 203 -6 431
1 227 -2 418 -5 423 -8 13 -9 13 -85 -17z"/>
<path d="M8905 2886 c-37 -16 -90 -35 -130 -46 -16 -5 -55 -18 -85 -30 -30
-12 -68 -25 -85 -30 -45 -12 -95 -30 -143 -51 l-42 -19 2 -1297 3 -1298 264
-3 c186 -2 268 1 277 9 12 10 14 233 14 1389 0 1247 -1 1378 -16 1384 -20 8
-23 7 -59 -8z"/>
<path d="M8160 2879 c-342 -55 -612 -194 -849 -437 -83 -86 -181 -202 -181
-216 0 -2 -18 -32 -40 -65 -22 -33 -45 -71 -50 -83 -6 -13 -14 -30 -19 -38 -5
-8 -17 -33 -26 -55 -10 -22 -22 -48 -26 -57 -10 -20 -39 -108 -62 -188 -41
-139 -49 -204 -56 -423 -8 -299 -6 -1180 3 -1195 5 -9 78 -12 266 -12 246 0
260 1 270 19 6 13 10 244 10 680 0 451 3 669 11 688 6 15 14 48 19 73 13 71
53 167 112 272 29 50 128 175 169 213 41 38 128 104 174 132 83 50 261 113
321 113 17 0 35 5 42 12 9 9 12 86 12 285 0 259 -1 273 -19 283 -11 5 -21 9
-23 9 -2 -1 -28 -6 -58 -10z"/>
<path d="M17280 2880 c-496 -5 -506 -6 -570 -29 -130 -46 -226 -102 -318 -185
-37 -33 -154 -190 -168 -226 -4 -8 -14 -33 -24 -55 -88 -198 -95 -457 -16
-670 55 -152 160 -288 296 -385 66 -47 188 -110 214 -110 7 0 32 -7 55 -15 28
-10 99 -15 229 -18 208 -4 251 -13 306 -62 59 -52 77 -97 78 -191 0 -70 -3
-87 -25 -121 -33 -52 -91 -100 -131 -107 -17 -3 -269 -6 -561 -7 -303 -1 -538
-5 -548 -11 -16 -8 -17 -30 -15 -301 l3 -292 545 -3 c377 -2 570 0 625 8 100
15 184 42 255 82 8 4 22 11 30 15 29 13 135 97 174 137 53 55 108 131 136 186
12 25 27 53 31 63 36 71 79 263 79 351 -1 69 -30 229 -55 296 -76 207 -236
391 -415 476 -141 68 -219 83 -421 84 -199 0 -235 9 -298 74 -61 62 -88 176
-57 237 9 18 16 37 16 43 0 18 63 82 100 102 33 18 70 19 535 24 l500 5 3 294
c1 194 -1 298 -8 305 -13 13 30 12 -580 6z"/>
<path d="M112 1478 l3 -1363 265 0 265 0 6 805 c7 874 6 861 64 985 58 125
162 230 280 283 44 21 175 52 216 52 50 0 163 -31 234 -65 83 -40 201 -159
243 -247 69 -142 65 -90 71 -993 l6 -820 265 0 265 0 6 815 c5 836 6 845 45
935 7 17 15 37 19 45 6 15 16 32 49 85 35 55 141 150 200 178 67 33 186 66
236 67 54 0 179 -35 240 -66 63 -33 198 -162 223 -214 10 -19 21 -42 26 -50
18 -30 39 -97 50 -156 7 -41 11 -309 11 -840 0 -593 3 -783 12 -792 19 -19
511 -17 527 2 9 11 11 213 8 823 -3 684 -6 822 -20 900 -9 51 -21 101 -26 112
-6 11 -11 29 -11 40 0 38 -87 223 -148 316 -73 110 -249 284 -322 319 -22 10
-56 30 -71 42 -21 15 -156 69 -219 87 -173 49 -376 49 -550 0 -72 -20 -201
-73 -221 -90 -8 -7 -20 -13 -26 -13 -14 0 -164 -110 -219 -160 -22 -21 -53
-45 -67 -55 l-27 -17 -77 69 c-83 73 -157 133 -166 133 -3 0 -25 13 -49 28
-85 56 -245 112 -380 133 -118 18 -328 2 -454 -34 -46 -14 -140 -53 -186 -78
-10 -5 -27 -9 -39 -9 -20 0 -21 4 -16 73 2 39 2 78 0 85 -4 9 -67 12 -274 12
l-269 0 2 -1362z"/>
<path d="M5135 2820 c-94 -20 -149 -36 -188 -56 -16 -8 -34 -14 -41 -14 -12 0
-40 -14 -151 -73 -159 -86 -368 -290 -471 -462 -42 -70 -115 -222 -125 -259
-4 -17 -12 -44 -17 -61 -81 -241 -88 -521 -21 -780 48 -187 133 -359 254 -515
44 -58 229 -232 282 -267 81 -52 89 -57 168 -96 102 -49 196 -84 265 -98 25
-5 63 -13 85 -18 52 -14 368 -14 420 0 22 5 60 13 85 18 43 9 64 15 155 49 42
15 165 74 200 95 42 26 171 126 194 150 l23 26 -185 187 -185 188 -69 -45
c-126 -83 -183 -104 -364 -131 -64 -9 -92 -8 -175 6 -263 47 -440 173 -587
419 -79 132 -203 117 971 119 l1017 3 3 210 c2 133 -1 227 -9 255 -6 25 -15
70 -20 100 -17 106 -52 207 -115 335 -53 108 -53 108 -128 210 -82 111 -155
185 -266 268 -115 86 -116 87 -205 130 -120 58 -171 76 -327 112 -95 21 -365
19 -473 -5z m406 -546 c40 -8 96 -26 124 -39 29 -14 55 -25 58 -25 4 0 36 -20
72 -45 104 -71 206 -183 273 -300 40 -70 45 -83 39 -99 -6 -14 -84 -16 -737
-16 l-730 0 0 24 c0 14 5 28 11 31 5 4 14 17 20 28 19 45 98 155 154 216 53
57 157 136 215 162 90 41 180 67 285 82 42 7 131 -1 216 -19z"/>
<path d="M11840 2829 c-19 -5 -55 -13 -80 -18 -70 -14 -164 -49 -265 -98 -86
-42 -94 -47 -175 -102 -165 -113 -330 -306 -424 -497 -27 -54 -53 -108 -59
-119 -6 -11 -14 -33 -18 -50 -4 -16 -12 -43 -18 -60 -72 -210 -84 -508 -29
-735 6 -25 14 -61 18 -80 19 -83 89 -246 154 -355 113 -191 313 -377 516 -480
108 -55 104 -53 167 -74 215 -70 389 -86 603 -56 155 22 222 43 375 117 120
58 119 58 216 130 102 76 176 152 265 270 70 94 194 326 194 363 0 9 6 29 14
43 37 72 81 369 72 487 -12 152 -32 264 -68 370 -5 17 -13 44 -17 60 -4 17
-12 39 -18 50 -6 11 -28 55 -49 98 -73 148 -138 240 -248 351 -128 131 -277
237 -406 290 -25 10 -58 24 -75 31 -35 14 -111 36 -207 59 -74 18 -376 21
-438 5z m386 -578 c65 -18 168 -62 219 -94 90 -57 215 -185 254 -261 12 -23
25 -48 30 -56 24 -45 32 -64 50 -117 42 -128 51 -268 27 -403 -15 -84 -44
-177 -57 -186 -5 -3 -9 -11 -9 -19 0 -25 -74 -138 -129 -198 -126 -135 -260
-211 -431 -243 -210 -39 -413 13 -596 152 -109 83 -213 231 -263 374 -18 54
-41 198 -41 265 0 97 28 232 66 320 7 17 15 37 18 45 12 31 97 152 140 199 79
84 278 210 338 212 13 0 39 7 58 14 55 21 240 19 326 -4z"/>
<path d="M13563 1973 c5 -901 7 -931 63 -1085 18 -48 40 -109 48 -128 12 -28
71 -129 108 -183 203 -296 562 -487 915 -487 122 0 309 33 398 70 115 49 187
89 270 149 203 150 382 413 435 641 5 19 13 51 18 70 28 97 33 300 30 1035
l-3 750 -272 3 -272 2 -3 -827 -4 -828 -23 -60 c-48 -126 -76 -170 -161 -256
-56 -56 -102 -93 -135 -108 -27 -12 -59 -27 -70 -33 -26 -15 -150 -38 -200
-38 -59 0 -173 25 -230 49 -182 80 -316 247 -357 446 -7 31 -13 354 -17 850
l-6 800 -268 3 -268 2 4 -837z"/>
</g>
</svg>
