<svg xmlns="http://www.w3.org/2000/svg" viewBox="0 0 96 96" role="img" aria-label="meritous monogram">
  <rect x="0.75" y="0.75" width="94.5" height="94.5" rx="22" fill="none" stroke="#F3ECDD" stroke-opacity="0.5" stroke-width="1.5"></rect>
  <path d="M35.57 64.15L20.88 64.15L20.88 61.24L23.85 60.68Q24.84 60.49 25.15 59.90Q25.46 59.31 25.46 57.70L25.46 57.70L25.46 40.22Q25.46 37.99 25.09 37.27Q24.72 36.56 23.36 36.38L23.36 36.38L20.32 35.94L20.75 32.96L29.37 32.28L30.11 32.72L30.55 38.23L30.73 38.23Q31.85 36.31 33.52 34.89Q35.20 33.46 37.18 32.66Q39.16 31.85 41.21 31.85L41.21 31.85Q44.87 31.85 47.22 33.49Q49.58 35.13 50.51 38.36L50.51 38.36Q52.00 35.44 54.91 33.65Q57.83 31.85 61.05 31.85L61.05 31.85Q64.21 31.85 66.41 33.09Q68.61 34.33 69.73 36.68Q70.85 39.04 70.85 42.45L70.85 42.45L70.85 58.20Q70.85 59.56 71.22 60.06Q71.59 60.55 72.77 60.74L72.77 60.74L75.68 61.24L75.68 64.15L60.99 64.15L60.99 61.30L63.22 60.80Q64.40 60.49 64.74 60.03Q65.08 59.56 65.08 58.20L65.08 58.20L65.08 44.25Q65.08 41.33 64.52 39.60Q63.97 37.86 62.69 37.09Q61.42 36.31 59.25 36.31L59.25 36.31Q56.83 36.31 54.97 37.40Q53.11 38.48 52.09 40.41Q51.07 42.33 51.07 44.93L51.07 44.93L51.07 57.95Q51.07 59.38 51.35 59.87Q51.63 60.37 52.56 60.62L52.56 60.62L55.41 61.30L55.41 64.15L41.15 64.15L41.15 61.30L43.38 60.80Q44.56 60.49 44.90 60.03Q45.24 59.56 45.24 58.20L45.24 58.20L45.24 44.25Q45.24 41.27 44.68 39.54Q44.13 37.80 42.85 37.06Q41.58 36.31 39.41 36.31L39.41 36.31Q37.00 36.31 35.13 37.40Q33.27 38.48 32.25 40.41Q31.23 42.33 31.23 44.93L31.23 44.93L31.23 57.95Q31.23 59.38 31.54 59.87Q31.85 60.37 32.78 60.62L32.78 60.62L35.57 61.30L35.57 64.15Z" fill="#F3ECDD"></path>
  <rect x="33" y="73" width="30" height="5" rx="2.5" fill="#E4C05C"></rect>
</svg>