<svg xmlns="http://www.w3.org/2000/svg" viewBox="0 0 450 130" role="img" aria-label="meritous">
  <path d="M32.86 94L11.06 94L11.06 89.68L15.48 88.85Q16.95 88.57 17.41 87.70Q17.87 86.82 17.87 84.43L17.87 84.43L17.87 58.49Q17.87 55.18 17.32 54.12Q16.76 53.06 14.74 52.78L14.74 52.78L10.23 52.14L10.88 47.72L23.66 46.71L24.77 47.36L25.41 55.54L25.69 55.54Q27.34 52.69 29.83 50.58Q32.31 48.46 35.26 47.26Q38.20 46.07 41.24 46.07L41.24 46.07Q46.66 46.07 50.16 48.51Q53.66 50.94 55.04 55.73L55.04 55.73Q57.24 51.40 61.57 48.74Q65.89 46.07 70.68 46.07L70.68 46.07Q75.37 46.07 78.63 47.91Q81.90 49.75 83.56 53.24Q85.21 56.74 85.21 61.80L85.21 61.80L85.21 85.17Q85.21 87.19 85.76 87.93Q86.32 88.66 88.06 88.94L88.06 88.94L92.39 89.68L92.39 94L70.58 94L70.58 89.77L73.90 89.03Q75.64 88.57 76.15 87.88Q76.66 87.19 76.66 85.17L76.66 85.17L76.66 64.47Q76.66 60.14 75.83 57.57Q75 54.99 73.11 53.84Q71.23 52.69 68.01 52.69L68.01 52.69Q64.42 52.69 61.66 54.30Q58.90 55.91 57.38 58.76Q55.86 61.62 55.86 65.48L55.86 65.48L55.86 84.80Q55.86 86.92 56.28 87.65Q56.69 88.39 58.07 88.76L58.07 88.76L62.30 89.77L62.30 94L41.14 94L41.14 89.77L44.46 89.03Q46.20 88.57 46.71 87.88Q47.22 87.19 47.22 85.17L47.22 85.17L47.22 64.47Q47.22 60.05 46.39 57.48Q45.56 54.90 43.67 53.80Q41.79 52.69 38.57 52.69L38.57 52.69Q34.98 52.69 32.22 54.30Q29.46 55.91 27.94 58.76Q26.42 61.62 26.42 65.48L26.42 65.48L26.42 84.80Q26.42 86.92 26.88 87.65Q27.34 88.39 28.72 88.76L28.72 88.76L32.86 89.77L32.86 94Z M116.48 95.29L116.48 95.29Q109.76 95.29 104.84 92.34Q99.92 89.40 97.21 83.97Q94.49 78.54 94.49 71.28L94.49 71.28Q94.49 63.64 97.30 57.98Q100.10 52.32 105.16 49.20Q110.22 46.07 116.94 46.07L116.94 46.07Q122.00 46.07 125.82 48.09Q129.64 50.12 131.75 53.80Q133.87 57.48 133.87 62.35L133.87 62.35Q133.87 64.28 133.55 66.58Q133.22 68.88 132.58 71.37L132.58 71.37L103.78 71.37Q103.97 76.70 105.81 80.57Q107.65 84.43 110.91 86.46Q114.18 88.48 118.60 88.48L118.60 88.48Q122.09 88.48 125.40 87.01Q128.72 85.54 131.29 82.96L131.29 82.96L134.51 86.18Q131.38 90.41 126.51 92.85Q121.63 95.29 116.48 95.29ZM103.78 66.22L103.78 66.22L124.94 66.22Q125.13 65.30 125.17 64.24Q125.22 63.18 125.22 61.98L125.22 61.98Q125.22 56.56 122.87 53.75Q120.53 50.94 115.93 50.94L115.93 50.94Q112.43 50.94 109.90 52.69Q107.37 54.44 105.81 57.84Q104.24 61.25 103.78 66.22Z M163.67 94L138.09 94L138.09 89.58L142.51 88.76Q143.98 88.48 144.44 87.61Q144.90 86.73 144.90 84.34L144.90 84.34L144.90 58.58Q144.90 55.36 144.35 54.26Q143.79 53.15 141.77 52.88L141.77 52.88L137.26 52.23L137.91 47.72L150.33 46.71L151.43 47.36L152.44 55.64L152.72 55.64Q155.39 50.94 158.88 48.51Q162.38 46.07 166.43 46.07L166.43 46.07Q170.75 46.07 173.33 48.46Q175.90 50.85 175.90 54.90L175.90 54.90Q175.90 57.29 175.21 58.90Q174.52 60.51 173.14 61.34Q171.76 62.17 169.74 62.17L169.74 62.17Q167.16 62.17 165.74 61.11Q164.31 60.05 164.31 58.12L164.31 58.12Q164.31 57.38 164.49 56.65Q164.68 55.91 165.09 54.95Q165.51 53.98 166.06 52.78L166.06 52.78Q164.03 51.77 161.83 52.46Q159.62 53.15 157.73 55.13Q155.85 57.11 154.65 59.91Q153.45 62.72 153.45 65.85L153.45 65.85L153.45 84.52Q153.45 86.73 153.87 87.51Q154.28 88.30 155.75 88.48L155.75 88.48L163.67 89.68L163.67 94Z M199.99 94L175.25 94L175.25 89.49L180.49 88.66Q182.33 88.39 182.84 87.47Q183.34 86.55 183.34 83.97L183.34 83.97L183.34 58.86Q183.34 55.54 182.74 54.44Q182.15 53.34 180.03 53.06L180.03 53.06L175.61 52.42L176.26 47.82L190.79 47.08L191.90 47.54L191.90 84.34Q191.90 86.09 192.36 87.19Q192.82 88.30 194.84 88.66L194.84 88.66L199.99 89.58L199.99 94ZM186.29 36.96L186.29 36.96Q183.62 36.96 181.87 35.26Q180.12 33.56 180.12 30.89L180.12 30.89Q180.12 28.22 181.87 26.47Q183.62 24.72 186.29 24.72L186.29 24.72Q189.05 24.72 190.79 26.43Q192.54 28.13 192.54 30.80L192.54 30.80Q192.54 33.46 190.79 35.21Q189.05 36.96 186.29 36.96Z M220.13 95.29L220.13 95.29Q215.99 95.29 213.28 93.82Q210.56 92.34 209.23 89.31Q207.89 86.27 207.89 81.58L207.89 81.58L207.89 53.15L200.63 53.15L200.63 48.37Q203.85 48.09 205.96 46.39Q208.08 44.69 209.27 41.15Q210.47 37.60 210.84 31.99L210.84 31.99L215.25 31.44L216.45 31.99L216.45 47.36L230.80 47.36L230.80 53.15L216.45 53.15L216.45 80.94Q216.45 84.80 218.06 86.69Q219.67 88.57 222.98 88.57L222.98 88.57Q225.37 88.57 227.49 87.84Q229.61 87.10 231.81 85.63L231.81 85.63L233.93 88.94Q230.99 91.98 227.40 93.63Q223.81 95.29 220.13 95.29Z M256.00 95.29L256.00 95.29Q249.19 95.29 244.13 92.39Q239.07 89.49 236.36 84.20Q233.64 78.91 233.64 71.74L233.64 71.74Q233.64 63.82 236.50 58.07Q239.35 52.32 244.68 49.20Q250.02 46.07 257.29 46.07L257.29 46.07Q264.00 46.07 268.88 48.92Q273.76 51.77 276.42 57.02Q279.09 62.26 279.09 69.44L279.09 69.44Q279.09 77.26 276.24 83.10Q273.39 88.94 268.24 92.11Q263.08 95.29 256.00 95.29ZM257.29 89.58L257.29 89.58Q261.34 89.58 264.10 87.51Q266.86 85.44 268.28 81.40Q269.71 77.35 269.71 71.64L269.71 71.64Q269.71 66.95 268.74 63.23Q267.78 59.50 265.98 56.88Q264.19 54.26 261.61 52.88Q259.04 51.50 255.82 51.50L255.82 51.50Q251.68 51.50 248.82 53.52Q245.97 55.54 244.45 59.41Q242.94 63.27 242.94 68.98L242.94 68.98Q242.94 75.42 244.68 80.02Q246.43 84.62 249.65 87.10Q252.87 89.58 257.29 89.58Z M302.72 95.29L302.72 95.29Q295.46 95.29 291.73 91.29Q288.00 87.28 288.00 79.56L288.00 79.56L288.00 58.49Q288.00 55.18 287.45 54.16Q286.90 53.15 284.88 52.78L284.88 52.78L280.83 52.14L281.56 47.72L295.46 46.71L296.56 47.36L296.56 76.89Q296.56 81.30 297.39 83.88Q298.22 86.46 300.15 87.56Q302.08 88.66 305.39 88.66L305.39 88.66Q309.26 88.66 312.02 87.10Q314.78 85.54 316.29 82.64Q317.81 79.74 317.81 75.88L317.81 75.88L317.81 58.49Q317.81 55.27 317.31 54.21Q316.80 53.15 314.68 52.78L314.68 52.78L310.54 52.14L311.28 47.72L325.26 46.71L326.37 47.36L326.37 84.71Q326.37 86.92 326.97 87.70Q327.56 88.48 329.31 88.85L329.31 88.85L333.91 89.68L333.91 94L319.65 94.55L318.36 87.10L318.09 87.10Q315.70 89.95 313.30 91.75Q310.91 93.54 308.34 94.41Q305.76 95.29 302.72 95.29Z M341.54 95.29L337.67 95.29L336.20 79.46L341.35 79.10Q342.64 82.59 344.48 84.98Q346.32 87.38 348.80 88.57Q351.29 89.77 354.23 89.77L354.23 89.77Q358.28 89.77 360.58 87.70Q362.88 85.63 362.88 82.04L362.88 82.04Q362.88 80.02 361.91 78.64Q360.95 77.26 358.60 76.11Q356.26 74.96 352.12 73.85L352.12 73.85Q348.07 72.75 345.22 71.41Q342.36 70.08 340.62 68.42Q338.87 66.77 338.09 64.70Q337.30 62.63 337.30 59.87L337.30 59.87Q337.30 55.64 339.24 52.55Q341.17 49.47 344.76 47.77Q348.34 46.07 353.13 46.07L353.13 46.07Q355.98 46.07 358.79 46.94Q361.59 47.82 363.25 49.20L363.25 49.20L363.98 46.07L368.03 46.07L369.23 61.06L363.98 60.60Q363.06 56.28 360.12 53.66Q357.18 51.04 353.31 51.04L353.31 51.04Q349.36 51.04 347.19 52.78Q345.03 54.53 345.03 57.75L345.03 57.75Q345.03 59.68 345.95 61.06Q346.87 62.44 349.22 63.55Q351.56 64.65 355.61 65.85L355.61 65.85Q359.75 67.04 362.60 68.38Q365.46 69.71 367.20 71.37Q368.95 73.02 369.73 75.14Q370.52 77.26 370.52 80.02L370.52 80.02Q370.52 84.52 368.40 87.97Q366.28 91.42 362.60 93.36Q358.92 95.29 354.05 95.29L354.05 95.29Q350.46 95.29 347.47 94.46Q344.48 93.63 342.55 92.16L342.55 92.16L341.54 95.29Z" fill="#1E3E32"></path>
  <rect x="377" y="94" width="66" height="7" rx="3.5" fill="#CE9E22"></rect>
</svg>